#!OML:ASF G:\JayActor3\Patient Classification 1\Patient 1\Session 6\male.ASF
:FULLY-SPECIFIED
:DEGREES
4328
root -5.69789 15.6373 -1.04997 190.944 -5.40047 -181.345
lowerback 34.1879 0.278522 3.18115
upperback 9.49935 -1.56564 -2.50629
thorax -7.01016 -1.79285 -3.63405
lowerneck 13.2286 10.3438 8.63728
upperneck -13.4132 14.0643 -12.2046
head -4.63596 7.38485 -6.12486
rclavicle -8.94531e-015 -1.68967e-014
rhumerus -27.8098 8.63329 -87.1079
rradius 57.0779
rwrist 1.85063
rhand -25.0985 -2.15027
rfingers 7.12502
rthumb 1.41647 -32.1253
lclavicle -8.94531e-015 -1.68967e-014
lhumerus -29.6817 -30.7995 80.0209
lradius 63.0853
lwrist 34.4578
lhand -24.1747 0.634493
lfingers 7.12502
lthumb 2.30863 30.6017
rfemur -59.3775 6.1883 11.2671
rtibia 40.3858
rfoot -14.7618 -11.6488
rtoes -11.7284
lfemur -34.3516 3.94651 -26.0362
ltibia 50.4383
lfoot -22.8957 10.6455
ltoes -6.92845
4329
root -5.67669 15.6468 -1.15557 190.728 -5.69532 -181.473
lowerback 34.0881 0.257254 3.21424
upperback 9.73143 -1.63727 -2.47969
thorax -6.72389 -1.84104 -3.60334
lowerneck 14.0365 10.1436 8.53515
upperneck -14.0863 13.794 -12.193
head -5.01527 7.26242 -6.19913
rclavicle -1.39149e-014 -2.72335e-014
rhumerus -27.8998 8.44391 -87.0119
rradius 57.3226
rwrist 1.88319
rhand -24.9355 -2.15508
rfingers 7.12502
rthumb 1.57382 -32.129
lclavicle -1.39149e-014 -2.72335e-014
lhumerus -29.4778 -30.4949 79.7608
lradius 63.165
lwrist 34.3742
lhand -24.0111 0.632812
lfingers 7.12502
lthumb 2.46665 30.5983
rfemur -57.8881 7.33026 9.85328
rtibia 37.4863
rfoot -14.9725 -11.9578
rtoes -11.1323
lfemur -33.5738 3.76839 -25.9306
ltibia 50.2571
lfoot -22.8748 10.5481
ltoes -7.72698
4330
root -5.65452 15.655 -1.26165 190.513 -6.01337 -181.58
lowerback 34.0015 0.227225 3.28416
upperback 9.95476 -1.70509 -2.44789
thorax -6.45198 -1.88676 -3.58853
lowerneck 14.7419 9.9601 8.44573
upperneck -14.6388 13.5486 -12.1693
head -5.33953 7.15 -6.25652
rclavicle 9.54166e-015 2.90226e-014
rhumerus -28.0464 8.22652 -86.9132
rradius 57.6372
rwrist 1.90474
rhand -24.7519 -2.17092
rfingers 7.12502
rthumb 1.75122 -32.1435
lclavicle 9.54166e-015 2.90226e-014
lhumerus -29.3043 -30.1316 79.5006
lradius 63.2661
lwrist 34.3381
lhand -23.8548 0.620009
lfingers 7.12502
lthumb 2.61763 30.5837
rfemur -56.5095 8.49767 8.48378
rtibia 34.9759
rfoot -15.0402 -12.0924
rtoes -10.323
lfemur -32.8341 3.55556 -25.7876
ltibia 50.1394
lfoot -22.8604 10.4435
ltoes -8.55938
4331
root -5.63187 15.6615 -1.36844 190.303 -6.35221 -181.658
lowerback 33.9206 0.185855 3.39603
upperback 10.1663 -1.76935 -2.4096
thorax -6.19484 -1.92934 -3.59092
lowerneck 15.343 9.79449 8.37374
upperneck -15.0648 13.3303 -12.1418
head -5.60456 7.04964 -6.29993
rclavicle -1.47101e-014 -8.74653e-015
rhumerus -28.248 7.97992 -86.8117
rradius 58.0224
rwrist 1.8932
rhand -24.5698 -2.1944
rfingers 7.12502
rthumb 1.9271 -32.1654
lclavicle -1.47101e-014 -8.74653e-015
lhumerus -29.1657 -29.7095 79.2467
lradius 63.3887
lwrist 34.3312
lhand -23.7019 0.619807
lfingers 7.12502
lthumb 2.76526 30.5816
rfemur -55.2512 9.62083 7.24685
rtibia 32.8783
rfoot -14.928 -12.0402
rtoes -9.50408
lfemur -32.1457 3.30052 -25.6001
ltibia 50.1004
lfoot -22.8605 10.3239
ltoes -9.41127
4332
root -5.60842 15.6662 -1.47603 190.104 -6.7066 -181.718
lowerback 33.8431 0.138457 3.53149
upperback 10.3625 -1.82844 -2.3641
thorax -5.95535 -1.96767 -3.60041
lowerneck 15.8428 9.64593 8.32183
upperneck -15.3712 13.1379 -12.1172
head -5.81163 6.9614 -6.33258
rclavicle -4.57205e-015 -1.17283e-014
rhumerus -28.5005 7.69778 -86.7069
rradius 58.4681
rwrist 1.83875
rhand -24.4124 -2.22579
rfingers 7.12502
rthumb 2.07904 -32.1954
lclavicle -4.57205e-015 -1.17283e-014
lhumerus -29.0573 -29.2311 79.0062
lradius 63.5213
lwrist 34.3511
lhand -23.5652 0.647978
lfingers 7.12502
lthumb 2.89725 30.608
rfemur -54.108 10.634 6.20781
rtibia 31.1958
rfoot -14.663 -11.7825
rtoes -8.68565
lfemur -31.5164 3.00029 -25.3761
ltibia 50.1463
lfoot -22.8749 10.1847
ltoes -10.2799
4333
root -5.58384 15.669 -1.58439 189.922 -7.07018 -181.746
lowerback 33.7743 0.0900757 3.69104
upperback 10.5357 -1.87302 -2.30322
thorax -5.74241 -1.99688 -3.6115
lowerneck 16.2561 9.51382 8.27683
upperneck -15.5829 12.9681 -12.0919
head -5.97203 6.88393 -6.35414
rclavicle 3.29983e-014 1.68967e-015
rhumerus -28.8011 7.3776 -86.5911
rradius 58.966
rwrist 1.73761
rhand -24.3039 -2.28528
rfingers 7.12502
rthumb 2.18383 -32.2539
lclavicle 3.29983e-014 1.68967e-015
lhumerus -28.9805 -28.7105 78.7915
lradius 63.6581
lwrist 34.3893
lhand -23.4466 0.68638
lfingers 7.12502
lthumb 3.0118 30.6449
rfemur -53.0675 11.4969 5.43432
rtibia 29.9034
rfoot -14.3049 -11.3394
rtoes -7.94888
lfemur -30.9618 2.66738 -25.1023
ltibia 50.2839
lfoot -22.8972 10.0196
ltoes -11.1644
4334
root -5.55787 15.6703 -1.69326 189.759 -7.43972 -181.752
lowerback 33.7181 0.0441747 3.86235
upperback 10.6854 -1.90318 -2.22957
thorax -5.55785 -2.01724 -3.61998
lowerneck 16.5973 9.39742 8.22848
upperneck -15.7337 12.8174 -12.061
head -6.0999 6.81518 -6.36472
rclavicle -2.25621e-014 2.29596e-014
rhumerus -29.1372 7.01038 -86.4671
rradius 59.4978
rwrist 1.59811
rhand -24.2494 -2.34125
rfingers 7.12502
rthumb 2.23648 -32.3093
lclavicle -2.25621e-014 2.29596e-014
lhumerus -28.9276 -28.1603 78.6019
lradius 63.7884
lwrist 34.4189
lhand -23.3543 0.725065
lfingers 7.12502
lthumb 3.10094 30.6823
rfemur -52.1116 12.1773 4.94015
rtibia 28.9651
rfoot -13.941 -10.7464
rtoes -7.264
lfemur -30.4836 2.32028 -24.7954
ltibia 50.5074
lfoot -22.9091 9.83683
ltoes -12.0931
4335
root -5.53006 15.6711 -1.80203 189.624 -7.8076 -181.744
lowerback 33.6753 0.0073441 4.03702
upperback 10.8075 -1.91229 -2.14895
thorax -5.40614 -2.02523 -3.62947
lowerneck 16.8774 9.28989 8.17564
upperneck -15.8458 12.677 -12.0162
head -6.20557 6.74976 -6.36342
rclavicle -3.27995e-015 3.37934e-015
rhumerus -29.5063 6.58315 -86.3373
rradius 60.049
rwrist 1.43227
rhand -24.2462 -2.3945
rfingers 7.12502
rthumb 2.23963 -32.3625
lclavicle -3.27995e-015 3.37934e-015
lhumerus -28.892 -27.6102 78.4369
lradius 63.9055
lwrist 34.4188
lhand -23.2877 0.747299
lfingers 7.12502
lthumb 3.16531 30.7035
rfemur -51.2431 12.6666 4.708
rtibia 28.331
rfoot -13.5875 -10.0785
rtoes -6.65805
lfemur -30.0936 1.98942 -24.4741
ltibia 50.8075
lfoot -22.8898 9.64702
ltoes -13.0655
4336
root -5.49997 15.6732 -1.90962 189.525 -8.16978 -181.722
lowerback 33.6445 -0.0197064 4.20977
upperback 10.8993 -1.90017 -2.06237
thorax -5.2897 -2.02063 -3.63805
lowerneck 17.1006 9.18908 8.11333
upperneck -15.9339 12.5424 -11.9576
head -6.29504 6.68546 -6.3506
rclavicle 5.96354e-015 1.09332e-015
rhumerus -29.8972 6.10104 -86.2104
rradius 60.6059
rwrist 1.25494
rhand -24.2972 -2.44926
rfingers 7.12502
rthumb 2.19034 -32.4178
lclavicle 5.96354e-015 1.09332e-015
lhumerus -28.8713 -27.0736 78.2932
lradius 64.0113
lwrist 34.3767
lhand -23.2382 0.743364
lfingers 7.12502
lthumb 3.21311 30.6989
rfemur -50.4884 12.9914 4.67973
rtibia 27.9526
rfoot -13.2919 -9.39389
rtoes -5.90749
lfemur -29.8023 1.70848 -24.1449
ltibia 51.1673
lfoot -22.8136 9.44823
ltoes -14.0434
4337
root -5.46767 15.6788 -2.01541 189.469 -8.51243 -181.688
lowerback 33.6207 -0.0344241 4.37466
upperback 10.9637 -1.86688 -1.9767
thorax -5.20376 -2.00369 -3.64987
lowerneck 17.2648 9.09292 8.04632
upperneck -16.0061 12.4098 -11.895
head -6.3698 6.62097 -6.33024
rclavicle -4.82053e-015 1.16289e-014
rhumerus -30.2953 5.57802 -86.0954
rradius 61.1512
rwrist 1.07697
rhand -24.3906 -2.4838
rfingers 7.12502
rthumb 2.10008 -32.4532
lclavicle -4.82053e-015 1.16289e-014
lhumerus -28.8581 -26.5503 78.1664
lradius 64.1029
lwrist 34.2877
lhand -23.2197 0.710392
lfingers 7.12502
lthumb 3.23092 30.6657
rfemur -49.8734 13.1696 4.80721
rtibia 27.7753
rfoot -13.0186 -8.77745
rtoes -5.20557
lfemur -29.6093 1.50925 -23.8229
ltibia 51.5686
lfoot -22.6611 9.26115
ltoes -15.0145
4338
root -5.43298 15.6893 -2.11853 189.463 -8.82739 -181.651
lowerback 33.6023 -0.0363729 4.5137
upperback 11.0018 -1.81824 -1.89276
thorax -5.14702 -1.97777 -3.6542
lowerneck 17.3653 9.00561 7.9617
upperneck -16.0664 12.2801 -11.8352
head -6.4305 6.55815 -6.3027
rclavicle 1.51076e-014 3.17807e-014
rhumerus -30.6834 5.05131 -85.9981
rradius 61.6705
rwrist 0.90468
rhand -24.5253 -2.51134
rfingers 7.12502
rthumb 1.97001 -32.482
lclavicle 1.51076e-014 3.17807e-014
lhumerus -28.8532 -26.0172 78.0589
lradius 64.1869
lwrist 34.1705
lhand -23.233 0.661505
lfingers 7.12502
lthumb 3.21806 30.617
rfemur -49.4242 13.2283 5.0304
rtibia 27.7503
rfoot -12.7318 -8.32373
rtoes -4.67507
lfemur -29.5178 1.40585 -23.5217
ltibia 51.9942
lfoot -22.4091 9.08838
ltoes -15.9373
4339
root -5.39621 15.7058 -2.21889 189.514 -9.10975 -181.602
lowerback 33.5777 -0.0270283 4.63068
upperback 11.0181 -1.75594 -1.81136
thorax -5.11063 -1.94366 -3.65377
lowerneck 17.3941 8.92584 7.87555
upperneck -16.1164 12.1512 -11.8015
head -6.47367 6.49725 -6.27729
rclavicle 1.02995e-014 -1.64619e-014
rhumerus -31.0374 4.54628 -85.9216
rradius 62.1431
rwrist 0.743136
rhand -24.6855 -2.53427
rfingers 7.12502
rthumb 1.81534 -32.5063
lclavicle 1.02995e-014 -1.64619e-014
lhumerus -28.8543 -25.4775 77.9668
lradius 64.2687
lwrist 34.0487
lhand -23.2787 0.59182
lfingers 7.12502
lthumb 3.17399 30.5479
rfemur -49.1448 13.1961 5.31665
rtibia 27.8285
rfoot -12.4232 -8.10712
rtoes -4.40657
lfemur -29.5293 1.39827 -23.2363
ltibia 52.4334
lfoot -22.0511 8.94299
ltoes -16.8084
